<svg id="Capa_1" enable-background="new 0 0 511.996 511.996" height="512" viewBox="0 0 511.996 511.996" width="512" xmlns="http://www.w3.org/2000/svg"><path d="m16.265 411.893 57.194-9.411 57.427 9.411v74.612c0 9.966-8.079 18.045-18.045 18.045h-78.532c-9.966 0-18.045-8.079-18.045-18.045v-74.612z" fill="#fff18f"/><path d="m74.466 436.758c-6.845-9.687-11.924-20.272-15.266-31.659l-42.935 6.794v74.612c0 9.966 8.079 18.045 18.045 18.045h78.532c9.966 0 18.045-8.079 18.045-18.045v-10.086c-23.994-2.787-42.992-20.657-56.421-39.661z" fill="#ffde83"/><path d="m16.265 376.508v35.385h114.621v-35.385c0-9.966-8.079-18.045-18.045-18.045h-78.532c-9.966 0-18.044 8.079-18.044 18.045z" fill="#ffbe6b"/><path d="m52.903 358.463h-18.594c-9.966 0-18.045 8.079-18.045 18.045v35.385h45.176c-9.085-21.128-8.503-49.832-8.537-53.43z" fill="#ffaa3e"/><path d="m198.687 411.893 57.194-9.411 57.427 9.411v74.612c0 9.966-8.079 18.045-18.045 18.045h-78.532c-9.966 0-18.045-8.079-18.045-18.045v-74.612z" fill="#fff18f"/><path d="m256.888 436.758c-6.845-9.687-11.924-20.272-15.266-31.659l-42.935 6.794v74.612c0 9.966 8.079 18.045 18.045 18.045h78.532c9.966 0 18.045-8.079 18.045-18.045v-10.086c-23.993-2.787-42.991-20.657-56.421-39.661z" fill="#ffde83"/><path d="m198.687 376.508v35.385h114.621v-35.385c0-9.966-8.079-18.045-18.045-18.045h-78.532c-9.965 0-18.044 8.079-18.044 18.045z" fill="#ffbe6b"/><path d="m235.326 358.463h-18.594c-9.966 0-18.045 8.079-18.045 18.045v35.385h45.176c-9.085-21.128-8.503-49.832-8.537-53.43z" fill="#ffaa3e"/><path d="m380.547 411.893 57.194-9.411 57.427 9.411v74.612c0 9.966-8.079 18.045-18.045 18.045h-78.532c-9.966 0-18.045-8.079-18.045-18.045v-74.612z" fill="#fff18f"/><path d="m438.748 436.758c-6.845-9.687-11.924-20.272-15.266-31.659l-42.935 6.794v74.612c0 9.966 8.079 18.045 18.045 18.045h78.532c9.966 0 18.045-8.079 18.045-18.045v-10.086c-23.993-2.787-42.991-20.657-56.421-39.661z" fill="#ffde83"/><path d="m380.547 376.508v35.385h114.621v-35.385c0-9.966-8.079-18.045-18.045-18.045h-78.532c-9.965 0-18.044 8.079-18.044 18.045z" fill="#ffbe6b"/><path d="m417.186 358.463h-18.594c-9.966 0-18.045 8.079-18.045 18.045v35.385h45.176c-9.085-21.128-8.503-49.832-8.537-53.43z" fill="#ffaa3e"/><path d="m207.526 119.503 57.049 53.97c7.24 6.849 18.66 6.532 25.509-.708l51.275-54.201-36.393-45.765-46.873-33.006-51.275 54.201c-6.848 7.239-6.531 18.66.708 25.509z" fill="#fff18f"/><path d="m289.094 151.525c-17.324-25.599-15.085-63.067 3.72-87.284l-34.72-24.449-51.275 54.201c-6.849 7.24-6.532 18.66.708 25.509l57.049 53.97c7.24 6.849 18.66 6.532 25.509-.708l8.615-9.106c-3.56-3.718-6.699-7.836-9.606-12.133z" fill="#ffde83"/><path d="m282.412 14.087-24.318 25.705 83.266 78.771 24.318-25.705c6.849-7.24 6.532-18.66-.708-25.509l-57.049-53.97c-7.239-6.848-18.66-6.532-25.509.708z" fill="#ffbe6b"/><path d="m325.87 30.36-17.949-16.98c-7.24-6.849-18.66-6.532-25.509.708l-24.318 25.705 31.148 29.467c11.726-17.614 28.933-31.742 36.628-38.9z" fill="#ffaa3e"/><path d="m107.575 271.975 57.194-9.411 57.427 9.411v74.612c0 9.966-8.079 18.045-18.045 18.045h-78.531c-9.966 0-18.045-8.079-18.045-18.045z" fill="#fff18f"/><path d="m165.776 296.84c-6.845-9.687-11.924-20.272-15.266-31.659l-42.935 6.794v74.612c0 9.966 8.079 18.045 18.045 18.045h78.532c9.966 0 18.045-8.079 18.045-18.045v-10.086c-23.993-2.787-42.991-20.657-56.421-39.661z" fill="#ffde83"/><path d="m107.575 236.59v35.385h114.621v-35.385c0-9.966-8.079-18.045-18.045-18.045h-78.531c-9.966 0-18.045 8.079-18.045 18.045z" fill="#ffbe6b"/><path d="m144.214 218.545h-18.594c-9.966 0-18.045 8.079-18.045 18.045v35.385h45.176c-9.086-21.128-8.503-49.832-8.537-53.43z" fill="#ffaa3e"/><path d="m133.228 46.951c38.631-10.662-14.384-58.24-29.232-31.312-9.593 17.399 13.089 35.768 29.232 31.312z" fill="#90aecf"/><path d="m289.835 271.975 57.194-9.411 57.427 9.411v74.612c0 9.966-8.079 18.045-18.045 18.045h-78.531c-9.966 0-18.045-8.079-18.045-18.045z" fill="#fff18f"/><path d="m348.036 296.84c-6.845-9.687-11.924-20.272-15.266-31.659l-42.935 6.794v74.612c0 9.966 8.079 18.045 18.045 18.045h78.532c9.966 0 18.045-8.079 18.045-18.045v-10.086c-23.993-2.787-42.991-20.657-56.421-39.661z" fill="#ffde83"/><path d="m289.835 236.59v35.385h114.621v-35.385c0-9.966-8.079-18.045-18.045-18.045h-78.531c-9.966 0-18.045 8.079-18.045 18.045z" fill="#ffbe6b"/><path d="m326.474 218.545h-18.594c-9.966 0-18.045 8.079-18.045 18.045v35.385h45.176c-9.086-21.128-8.503-49.832-8.537-53.43z" fill="#ffaa3e"/><path d="m477.488 350.909h-66.967c.902-2.611 1.399-5.409 1.399-8.322v-109.997c0-14.085-11.459-25.545-25.545-25.545h-78.531c-14.086 0-25.545 11.459-25.545 25.545v109.997c0 2.914.497 5.712 1.399 8.322h-55.402c.902-2.611 1.399-5.409 1.399-8.322v-109.997c0-14.085-11.459-25.545-25.545-25.545h-78.53c-14.086 0-25.545 11.459-25.545 25.545v63.121c0 4.142 3.357 7.5 7.5 7.5s7.5-3.358 7.5-7.5v-20.236h99.621v67.112c0 5.814-4.73 10.544-10.545 10.544h-78.531c-5.814 0-10.545-4.73-10.545-10.544v-16.144c0-4.142-3.357-7.5-7.5-7.5s-7.5 3.358-7.5 7.5v16.144c0 2.914.497 5.712 1.399 8.322h-66.966c-14.086 0-25.545 11.459-25.545 25.545v109.997c0 14.085 11.459 25.544 25.545 25.544h78.531c14.086 0 25.545-11.459 25.545-25.544v-109.997c0-2.914-.497-5.712-1.399-8.323h55.402c-.902 2.611-1.399 5.409-1.399 8.323v109.997c0 14.085 11.459 25.544 25.545 25.544h78.531c14.086 0 25.545-11.459 25.545-25.544v-109.997c0-2.914-.497-5.712-1.399-8.323h55.402c-.902 2.611-1.399 5.409-1.399 8.323v109.997c0 14.085 11.459 25.544 25.545 25.544h78.531c14.086 0 25.545-11.459 25.545-25.544v-74.611-35.385c-.001-14.086-11.46-25.546-25.546-25.546zm10.545 25.545v27.885h-99.621v-27.885c0-5.814 4.73-10.545 10.545-10.545h78.531c5.815 0 10.545 4.731 10.545 10.545zm-190.733-33.867v-67.112h99.621v67.112c0 5.814-4.73 10.544-10.545 10.544h-78.531c-5.815.001-10.545-4.73-10.545-10.544zm0-109.997c0-5.814 4.73-10.545 10.545-10.545h78.531c5.814 0 10.545 4.73 10.545 10.545v27.885h-99.621zm8.508 171.75h-99.621v-27.885c0-5.814 4.73-10.545 10.545-10.545h78.531c5.814 0 10.545 4.73 10.545 10.545zm-190.733-143.865v-27.885c0-5.814 4.73-10.545 10.545-10.545h78.531c5.814 0 10.545 4.73 10.545 10.545v27.885zm-91.112 115.979c0-5.814 4.73-10.545 10.545-10.545h78.531c5.814 0 10.545 4.73 10.545 10.545v27.885h-99.621zm99.621 109.997c0 5.814-4.73 10.544-10.545 10.544h-78.531c-5.814 0-10.545-4.73-10.545-10.544v-67.111h99.621zm182.224 0c0 5.814-4.73 10.544-10.545 10.544h-78.531c-5.814 0-10.545-4.73-10.545-10.544v-67.111h99.621zm182.225 0c0 5.814-4.73 10.544-10.545 10.544h-78.531c-5.814 0-10.545-4.73-10.545-10.544v-67.111h99.621z"/><path d="m194.392 107.102c.189 6.82 3.022 13.159 7.979 17.849l57.049 53.969c10.108 9.562 26.537 9.121 36.112-1.001l75.593-79.906c9.68-10.232 9.23-26.432-1.001-36.112l-57.05-53.97c-10.082-9.538-26.572-9.083-36.111 1.002l-75.593 79.906c-4.688 4.957-7.167 11.443-6.978 18.263zm93.468-87.861c3.952-4.178 10.728-4.368 14.906-.414l57.05 53.97c4.224 3.996 4.409 10.683.413 14.907l-19.163 20.257-72.37-68.463zm-75.593 79.907 46.12-48.753 72.37 68.463-46.121 48.752c-3.95 4.176-10.728 4.366-14.907.414l-57.049-53.969c-4.179-3.955-4.366-10.727-.413-14.907z"/><path d="m128.153 55.108c12.345 0 26.559-8.511 26.402-22.093-.169-14.554-15.781-28.589-29.688-32.083-11.729-2.948-21.986 1.198-27.438 11.087-5.163 9.364-4.015 20.315 3.072 29.294 6.794 8.61 17.597 13.795 27.652 13.795zm-17.59-35.847c2.227-4.038 6.363-4.859 10.648-3.782 9.627 2.419 18.277 11.918 18.345 17.709.032 2.802-2.769 5-8.324 6.534-5.927 1.636-14.257-1.746-18.957-7.701-2.348-2.977-4.161-7.981-1.712-12.76z"/><path d="m148.118 65.339c-2.28 3.458-1.326 8.11 2.132 10.39 2.529 1.669 3.905 5.731 3.199 9.449-.753 3.964-3.499 8.025-7.733 11.434-4.368 3.518-9.913 6.147-15.275 8.69-3.742 1.774-5.338 6.248-3.563 9.99 1.751 3.693 6.281 5.321 9.99 3.563 5.862-2.78 12.508-5.932 18.255-10.56 7.007-5.642 11.646-12.858 13.063-20.319 1.856-9.773-2.033-19.728-9.678-24.769-3.456-2.28-8.11-1.326-10.39 2.132z"/><path d="m174.79 47.299c3.314 1.592 5.958 4.633 7.071 8.135 1.243 3.906 5.541 6.109 9.421 4.874 3.947-1.255 6.129-5.473 4.874-9.42-2.378-7.475-7.798-13.711-14.87-17.109-3.733-1.794-8.214-.222-10.009 3.512-1.793 3.733-.22 8.214 3.513 10.008z"/></svg>