<svg id="Capa_1" enable-background="new 0 0 512 512" height="512" viewBox="0 0 512 512" width="512" xmlns="http://www.w3.org/2000/svg"><path d="m220.182 243.01c-4.142 0-7.5 3.358-7.5 7.5v6.883c0 4.143 3.358 7.5 7.5 7.5s7.5-3.357 7.5-7.5v-6.883c0-4.142-3.358-7.5-7.5-7.5z"/><path d="m291.819 264.893c4.142 0 7.5-3.357 7.5-7.5v-6.883c0-4.142-3.358-7.5-7.5-7.5s-7.5 3.358-7.5 7.5v6.883c0 4.142 3.358 7.5 7.5 7.5z"/><path d="m271.098 262.116c2.722-3.123 2.396-7.86-.726-10.582s-7.86-2.397-10.582.726c-.563.646-1.804 1.73-3.79 1.73-1.985 0-3.226-1.084-3.789-1.729-2.721-3.123-7.459-3.448-10.582-.727s-3.448 7.458-.727 10.582c3.807 4.369 9.31 6.875 15.098 6.875 5.787-.001 11.29-2.507 15.098-6.875z"/><path d="m327.117 256c0-39.214-31.903-71.117-71.116-71.117-39.214 0-71.117 31.903-71.117 71.117s31.903 71.117 71.117 71.117c39.213 0 71.116-31.903 71.116-71.117zm-127.233 0c0-30.943 25.174-56.117 56.117-56.117 30.942 0 56.116 25.174 56.116 56.117s-25.174 56.117-56.117 56.117c-30.942 0-56.116-25.174-56.116-56.117z"/><path d="m210.221 35.04c14.329-13.298 29.732-20.04 45.779-20.04 31.182 0 60.051 25.762 81.289 72.54 23.813 52.45 31.758 111.263 31.758 168.46 0 67.482-10.035 143.462-49.529 200.224-2.366 3.4-1.527 8.074 1.872 10.44 3.303 2.298 8.097 1.496 10.44-1.873 6.874-9.88 13.27-21.289 19.013-33.908 11.621 1.753 22.798 2.644 33.222 2.644 40.456 0 70.367-13.103 86.499-37.892 20.407-31.357 14.588-75.375-16.384-123.943-3.274-5.134-6.896-10.393-10.788-15.687 3.855-5.241 7.462-10.479 10.788-15.695 30.972-48.569 36.791-92.587 16.384-123.944-20.376-31.311-62.888-43.823-119.721-35.247-23.807-52.311-57.483-81.119-94.843-81.119-19.954 0-38.79 8.09-55.982 24.044-3.036 2.818-3.213 7.563-.396 10.599 2.817 3.037 7.563 3.214 10.599.397zm155.957 87.746c6.232-.668 12.207-1.014 17.834-1.014 24.775 0 42.626 6.466 50.267 18.207 10.29 15.812 4.084 44.617-16.601 77.054-.999 1.566-2.035 3.134-3.088 4.702-10.628-11.208-22.288-22.224-34.781-32.863-3.011-23.32-7.595-45.552-13.631-66.086zm17.849 129.619c1.13 1.201 2.26 2.401 3.363 3.606-1.106 1.207-2.227 2.414-3.363 3.619.008-1.209.02-2.418.02-3.63 0-1.2-.012-2.396-.02-3.595zm-.588-22.031c-.305-6.442-.726-12.831-1.258-19.16-.008-.097-.014-.195-.022-.292 8.333 7.613 16.203 15.379 23.536 23.229-2.658 3.494-5.454 6.999-8.37 10.495-4.437-4.805-9.083-9.58-13.886-14.272zm-3.63 92.754c12.499-10.645 24.147-21.666 34.769-32.875 1.07 1.59 2.113 3.167 3.1 4.714 20.685 32.437 26.891 61.242 16.601 77.054-9.448 14.518-34.591 20.752-68.1 17.19 6.036-20.533 10.619-42.764 13.63-66.083zm78.184 64.325c-13.229 20.329-38.792 31.074-73.927 31.074-8.549 0-17.68-.649-27.195-1.933.739-1.89 3.878-10.438 4.689-12.804 41.31 4.998 72.204-3.476 85.292-23.587 13.793-21.195 7.77-55.202-16.526-93.301-1.671-2.62-3.458-5.303-5.341-8.018 3.042-3.476 5.998-6.985 8.854-10.511 2.742 3.844 5.315 7.65 7.695 11.382 27.621 43.316 33.466 81.563 16.459 107.698zm0-262.906c17.008 26.134 11.163 64.382-16.459 107.697-16.313 25.58-36.976 48.348-59.316 68.778-.019.018-.038.035-.058.053.009-.101.014-.202.023-.302.531-6.324.952-12.708 1.256-19.145 19.058-18.606 34.824-37.613 46.887-56.53 24.295-38.099 30.319-72.106 16.526-93.301-10.654-16.372-32.383-25.025-62.839-25.025-7.069 0-14.599.482-22.453 1.437-.121-.354-3.17-8.917-4.689-12.804 48.743-6.586 84.567 3.703 101.122 29.142z"/><path d="m41.435 395.635c16.132 24.789 46.043 37.892 86.5 37.892 10.426 0 21.602-.891 33.222-2.644 23.808 52.31 57.484 81.117 94.843 81.117 20.011 0 38.891-8.131 56.117-24.166 3.032-2.822 3.202-7.568.379-10.6s-7.568-3.202-10.6-.379c-14.359 13.367-29.801 20.145-45.896 20.145-31.182 0-60.05-25.762-81.289-72.54-23.826-52.477-31.758-111.235-31.758-168.46 0-56.785 8.005-116.157 31.758-168.46 5.413-11.922 11.417-22.644 17.846-31.867 2.369-3.398 1.534-8.073-1.864-10.441-3.398-2.369-8.074-1.534-10.441 1.864-6.909 9.912-13.332 21.359-19.095 34.022-56.828-8.578-99.343 3.934-119.721 35.248-20.408 31.357-14.589 75.375 16.384 123.944 3.275 5.137 6.898 10.396 10.788 15.686-3.855 5.241-7.462 10.479-10.788 15.695-30.973 48.569-36.792 92.586-16.385 123.944zm104.386-6.424c-33.513 3.561-58.654-2.675-68.1-17.189-10.29-15.812-4.084-44.617 16.601-77.054.999-1.566 2.035-3.134 3.088-4.703 10.627 11.208 22.287 22.224 34.781 32.863 3.011 23.319 7.594 45.549 13.63 66.083zm-17.847-129.616c-1.13-1.201-2.26-2.401-3.363-3.606 1.106-1.207 2.228-2.414 3.363-3.619-.008 1.209-.02 2.417-.02 3.63 0 1.2.012 2.397.02 3.595zm.588 22.031c.305 6.443.726 12.833 1.258 19.163.008.097.014.194.022.291-8.333-7.613-16.203-15.38-23.536-23.229 2.657-3.494 5.454-7 8.37-10.495 4.436 4.803 9.081 9.577 13.886 14.27zm3.629-92.753c-12.499 10.645-24.148 21.666-34.769 32.875-1.07-1.59-2.113-3.167-3.1-4.715-20.686-32.437-26.891-61.242-16.601-77.054 9.448-14.517 34.59-20.751 68.1-17.189-6.036 20.533-10.619 42.764-13.63 66.083zm-78.184-64.326c13.292-20.426 38.999-31.084 73.844-31.084 8.555 0 17.67.644 27.278 1.942-.741 1.896-4.568 12.451-4.689 12.805-41.307-4.997-72.205 3.476-85.292 23.586-13.793 21.194-7.77 55.201 16.526 93.3 1.671 2.621 3.458 5.304 5.341 8.019-3.041 3.475-5.998 6.985-8.853 10.511-2.74-3.842-5.314-7.648-7.695-11.382-27.622-43.314-33.468-81.562-16.46-107.697zm16.46 155.209c8.871-13.911 19.089-26.969 30.073-39.269 8.921-9.996 18.73-19.898 29.3-29.562-.01.114-.016.229-.026.343-.529 6.311-.949 12.681-1.253 19.104-19.057 18.606-34.824 37.613-46.887 56.529-24.296 38.1-30.319 72.106-16.526 93.301 13.086 20.108 43.982 28.582 85.292 23.586.121.353.25.696.371 1.048 1.363 3.946 2.798 7.869 4.318 11.757-9.513 1.283-18.644 1.932-27.195 1.932-35.134 0-60.698-10.745-73.927-31.074-17.008-26.133-11.162-64.38 16.46-107.695z"/><path d="m324.996 419.373c23.126-50.669 30.759-108.076 30.759-163.373 0-54.702-7.394-113.097-30.757-163.369-18.662-40.893-43.794-64.339-68.998-64.339-25.199 0-50.327 23.438-68.992 64.326-23.136 50.681-30.762 108.08-30.762 163.382 0 55.038 7.519 112.174 30.552 162.926.006.013.012.026.018.04.017.037.034.072.051.109 0 0 .129.278.134.288 18.662 40.897 43.795 64.346 69.001 64.346 25.201-.001 50.33-23.444 68.994-64.336zm8.394-247.474c1.114 6.063 2.107 12.253 2.974 18.536-8.402-6.234-17.085-12.272-25.953-18.043-12.25-7.973-24.807-15.401-37.479-22.177 5.203-2.355 10.388-4.578 15.519-6.651 9.869 5.544 19.68 11.484 29.21 17.687 5.233 3.405 10.512 6.979 15.729 10.648zm-4.503-21.216c-1.015-.671-2.031-1.345-3.044-2.004-6.308-4.105-12.743-8.081-19.23-11.927 5.705-1.964 11.369-3.762 16.974-5.364 1.92 6.24 3.69 12.677 5.3 19.295zm-72.887-107.391c17.332 0 36.259 17.663 51.555 47.698-16.919 5.064-34.21 11.587-51.573 19.396-17.454-7.85-34.738-14.361-51.538-19.394 15.296-30.036 34.224-47.7 51.556-47.7zm-62.773 73.75c1.469-4.027 4.76-12.109 4.842-12.304 13.029 3.815 26.391 8.563 39.924 14.185-.137.068-10.529 5.382-15.52 8.097-9.938-3.81-19.747-7.115-29.286-9.87.014-.036.027-.072.04-.108zm-4.815 14.353c5.563 1.594 11.224 3.376 16.964 5.357-6.442 3.822-12.855 7.786-19.218 11.926-1.012.659-2.029 1.333-3.044 2.004 1.609-6.615 3.378-13.049 5.298-19.287zm-9.801 40.504c15.678-11.028 31.956-21.197 48.746-30.445 10.306-5.678 20.999-11.09 31.769-16.027.013-.006.024-.015.037-.021 18.468-8.465 36.854-15.428 54.768-20.668.079.187 3.371 8.271 4.843 12.306.013.035.025.069.037.104-37.999 10.945-78.347 29.944-117.222 55.244-8.869 5.771-17.551 11.809-25.953 18.042.868-6.282 1.861-12.473 2.975-18.535zm-7.365 84.101c0-15.266.686-30.271 2.017-44.852 11.581-9.14 23.843-17.942 36.509-26.184 15.261-9.932 30.737-18.849 46.183-26.652 15.645 7.892 31.196 16.838 46.275 26.652 12.664 8.241 24.926 17.044 36.509 26.185 1.331 14.58 2.017 29.586 2.017 44.852s-.686 30.271-2.017 44.852c-11.582 9.141-23.845 17.943-36.509 26.185-15.261 9.932-30.737 18.849-46.183 26.652-15.644-7.892-31.196-16.838-46.275-26.652-12.666-8.243-24.929-17.045-36.509-26.185-1.331-14.581-2.017-29.587-2.017-44.853zm7.365 84.102c-1.114-6.062-2.107-12.253-2.974-18.536 8.401 6.234 17.084 12.271 25.953 18.043 12.251 7.973 24.808 15.401 37.48 22.177-5.203 2.355-10.388 4.578-15.519 6.651-9.864-5.541-19.676-11.482-29.211-17.687-5.23-3.403-10.509-6.978-15.729-10.648zm4.503 21.216c1.015.67 2.031 1.345 3.044 2.004 6.311 4.106 12.745 8.082 19.23 11.927-5.705 1.964-11.369 3.762-16.974 5.364-1.92-6.24-3.69-12.677-5.3-19.295zm10.112 33.636c-.012-.034-.024-.067-.036-.101 37.998-10.945 78.347-29.945 117.222-55.245 8.867-5.771 17.551-11.809 25.953-18.043-.867 6.282-1.86 12.473-2.974 18.536-5.216 3.668-10.496 7.243-15.729 10.648-20.7 13.461-42.338 25.532-64.787 35.823-.011.005-.021.013-.033.018-18.47 8.467-36.858 15.43-54.772 20.671-.084-.197-3.377-8.282-4.844-12.307zm62.774 73.754c-17.332 0-36.258-17.663-51.554-47.697 16.918-5.064 34.21-11.587 51.572-19.396 17.454 7.85 34.738 14.361 51.537 19.393-15.295 30.036-34.222 47.7-51.555 47.7zm62.737-73.651c-1.501 4.107-3.099 8.179-4.806 12.205-13.029-3.815-26.391-8.563-39.924-14.185.128-.064.255-.132.383-.196 5.09-2.549 10.138-5.181 15.137-7.901 9.938 3.81 19.749 7.116 29.286 9.87-.026.069-.051.138-.076.207zm-12.111-19.809c6.442-3.821 12.855-7.786 19.218-11.926 1.012-.659 2.028-1.333 3.043-2.004-1.61 6.615-3.379 13.049-5.298 19.287-5.563-1.593-11.224-3.375-16.963-5.357z"/></svg>