<svg id="Capa_1" enable-background="new 0 0 497 497" height="512" viewBox="0 0 497 497" width="512" xmlns="http://www.w3.org/2000/svg"><circle cx="248.5" cy="248.5" fill="#f8e86a" r="63.617"/><path d="m258.5 292.117c-35.134 0-63.616-28.482-63.616-63.617 0-6.259.919-12.3 2.603-18.013-7.916 10.605-12.603 23.762-12.603 38.013 0 35.135 28.482 63.617 63.616 63.617 28.875 0 53.243-19.245 61.013-45.603-11.599 15.54-30.13 25.603-51.013 25.603z" fill="#fab659"/><path d="m376.566 418.527c-10.107 0-20.907-.858-32.336-2.593-50.011-7.596-107.36-31.177-161.481-66.397-54.121-35.221-98.906-78.108-126.105-120.759-29.297-45.942-35.13-87.075-16.422-115.821 18.707-28.746 58.676-40.072 112.55-31.889 50.012 7.597 107.361 31.177 161.481 66.397 54.121 35.221 98.906 78.107 126.105 120.759 29.297 45.942 35.13 87.074 16.422 115.82-14.74 22.647-42.68 34.483-80.214 34.483zm-178.386-92.704c50.812 33.067 104.189 55.136 150.299 62.139 41.636 6.326 72.468-.728 84.587-19.35 12.118-18.621 6.081-49.667-16.564-85.177-25.076-39.323-66.87-79.19-117.682-112.258s-104.188-55.136-150.298-62.139c-41.641-6.326-72.47.728-84.588 19.349-12.119 18.621-6.081 49.667 16.564 85.177 25.077 39.323 66.87 79.191 117.682 112.259z" fill="#fc9389"/><path d="m212.681 257.393c-4.143 0-7.5-3.358-7.5-7.5v-6.883c0-4.142 3.357-7.5 7.5-7.5s7.5 3.358 7.5 7.5v6.883c0 4.142-3.357 7.5-7.5 7.5z" fill="#423e4f"/><path d="m284.319 257.393c-4.143 0-7.5-3.358-7.5-7.5v-6.883c0-4.142 3.357-7.5 7.5-7.5s7.5 3.358 7.5 7.5v6.883c0 4.142-3.358 7.5-7.5 7.5z" fill="#423e4f"/><path d="m248.501 261.49c-5.788 0-11.291-2.506-15.098-6.875-2.722-3.123-2.396-7.86.727-10.582 3.124-2.721 7.86-2.396 10.582.727.563.646 1.804 1.729 3.789 1.729s3.227-1.084 3.79-1.731c2.721-3.122 7.458-3.446 10.582-.725 3.122 2.722 3.446 7.46.725 10.582-3.809 4.37-9.311 6.875-15.097 6.875z" fill="#423e4f"/><path d="m215.729 336.74c-11.327 4.885-22.513 9.062-33.438 12.494.153.1.305.202.458.302 33.935 22.084 69.139 39.59 103.008 51.45 11.271-5.911 22.505-12.313 33.622-19.182-33.149-8.847-68.731-24.295-103.65-45.064z" fill="#fa695b"/><path d="m110.376 292.676c5.173-7.477 11.018-14.973 17.459-22.427-19.114-18.467-35.191-37.638-47.337-56.684-2.954-4.632-5.618-9.185-8.003-13.647-7.005 7.442-13.594 14.974-19.725 22.56 1.247 2.09 2.527 4.188 3.874 6.3 13.762 21.58 32.033 43.22 53.732 63.898z" fill="#fa695b"/><path d="m281.272 160.26c11.327-4.885 22.513-9.062 33.439-12.494-.153-.1-.305-.202-.458-.302-33.935-22.084-69.138-39.589-103.007-51.45-11.271 5.912-22.505 12.313-33.621 19.182 33.146 8.848 68.727 24.295 103.647 45.064z" fill="#fa695b"/><path d="m440.357 268.223c-13.763-21.582-32.034-43.221-53.732-63.899-5.173 7.477-11.018 14.973-17.459 22.427 19.114 18.467 35.191 37.638 47.336 56.684 2.954 4.632 5.618 9.186 8.003 13.648 7.005-7.442 13.594-14.974 19.726-22.56-1.248-2.09-2.528-4.188-3.874-6.3z" fill="#fa695b"/><path d="m120.435 418.527c-37.538 0-65.474-11.834-80.213-34.483-18.707-28.745-12.875-69.879 16.422-115.82 27.199-42.652 71.984-85.538 126.105-120.759s111.47-58.801 161.481-66.397c53.875-8.181 93.842 3.143 112.549 31.889 18.708 28.746 12.875 69.879-16.422 115.821-27.199 42.652-71.984 85.538-126.105 120.759-54.121 35.221-111.469 58.801-161.481 66.397-11.426 1.735-22.232 2.593-32.336 2.593zm256.077-311.755c-8.647 0-18.028.747-28.033 2.267-46.11 7.003-99.487 29.071-150.299 62.139s-92.605 72.934-117.682 112.258c-22.645 35.51-28.682 66.556-16.564 85.177 12.118 18.62 42.946 25.673 84.588 19.35 46.109-7.003 99.486-29.071 150.298-62.139s92.605-72.934 117.682-112.258c22.645-35.51 28.682-66.556 16.564-85.177-9.207-14.148-29.213-21.617-56.554-21.617z" fill="#f8e86a"/><g fill="#fab659"><path d="m398.939 237.863c-23.833 29.56-56.25 58.566-93.969 83.886-2.255 13.655-5.147 26.704-8.649 38.952 6.006-3.581 11.988-7.298 17.93-11.166 31.704-20.632 60.196-43.896 83.834-68.202.635-10.823.961-21.783.961-32.833.001-3.556-.04-7.1-.107-10.637z"/><path d="m98.061 259.136c23.833-29.559 56.25-58.565 93.968-83.885 2.255-13.655 5.147-26.704 8.649-38.951-6.006 3.581-11.988 7.298-17.93 11.165-31.704 20.632-60.196 43.896-83.834 68.201-.635 10.824-.961 21.784-.961 32.834.001 3.556.042 7.1.108 10.636z"/><path d="m152.771 415.933c19.858-3.016 40.874-8.561 62.383-16.345-.563-1.178-1.128-2.38-1.693-3.626-3.222-7.097-6.176-14.659-8.855-22.621-19.4 6.959-38.284 11.917-56.083 14.62-11.219 1.704-21.645 2.428-31.14 2.225 2.934 9.782 6.177 19.21 9.73 28.211 8.148-.291 16.709-1.105 25.658-2.464z"/><path d="m376.512 106.772c1.047 0 2.079.015 3.104.037-2.932-9.778-6.175-19.203-9.727-28.201-8.15.292-16.708 1.101-25.66 2.46-19.857 3.016-40.873 8.561-62.383 16.345.563 1.178 1.127 2.379 1.693 3.625 3.222 7.097 6.176 14.66 8.855 22.622 19.4-6.959 38.284-11.917 56.084-14.62 10.006-1.521 19.387-2.268 28.034-2.268z"/></g><path d="m248.5 497c-34.297 0-65.592-27.324-88.118-76.939-20.912-46.061-32.429-106.989-32.429-171.561s11.517-125.5 32.43-171.561c22.526-49.615 53.82-76.939 88.117-76.939 34.298 0 65.592 27.324 88.118 76.939 20.912 46.061 32.429 106.989 32.429 171.561s-11.517 125.501-32.429 171.561c-22.526 49.615-53.82 76.939-88.118 76.939zm0-468.708c-22.217 0-44.945 21.994-62.356 60.342-19.28 42.466-29.898 99.241-29.898 159.865 0 60.625 10.618 117.399 29.898 159.865 17.411 38.349 40.139 60.343 62.356 60.343s44.945-21.994 62.356-60.343c19.281-42.466 29.898-99.24 29.898-159.865 0-60.624-10.618-117.399-29.898-159.865-17.411-38.348-40.138-60.342-62.356-60.342z" fill="#00c8de"/></svg>